<mxfile host="app.diagrams.net" agent="Mozilla/5.0 (Windows NT 10.0; Win64; x64) AppleWebKit/537.36 (KHTML, like Gecko) Chrome/139.0.0.0 Safari/537.36" version="28.1.1">
  <diagram name="第 1 页" id="SthXm4i2TolT7l9BS4BB">
    <mxGraphModel dx="1426" dy="846" grid="1" gridSize="10" guides="1" tooltips="1" connect="1" arrows="1" fold="1" page="0" pageScale="1" pageWidth="827" pageHeight="1169" math="0" shadow="0">
      <root>
        <mxCell id="0" />
        <mxCell id="1" parent="0" />
        <mxCell id="Iqbc1BkNyJcO027LHsEv-5" value="业务后台" style="rounded=1;whiteSpace=wrap;html=1;verticalAlign=bottom;" vertex="1" parent="1">
          <mxGeometry x="110" y="290" width="660" height="120" as="geometry" />
        </mxCell>
        <mxCell id="Iqbc1BkNyJcO027LHsEv-1" value="&lt;b&gt;&lt;font style=&quot;font-size: 13px;&quot;&gt;gateway&lt;/font&gt;&lt;/b&gt;" style="rounded=1;whiteSpace=wrap;html=1;fillColor=#f5f5f5;fontColor=#333333;strokeColor=#666666;" vertex="1" parent="1">
          <mxGeometry x="340" y="170" width="175" height="70" as="geometry" />
        </mxCell>
        <mxCell id="Iqbc1BkNyJcO027LHsEv-2" value="ssgc-component-bussiness" style="rounded=1;whiteSpace=wrap;html=1;fillColor=#dae8fc;strokeColor=#6c8ebf;" vertex="1" parent="1">
          <mxGeometry x="130" y="320" width="180" height="60" as="geometry" />
        </mxCell>
        <mxCell id="Iqbc1BkNyJcO027LHsEv-3" value="ssgc-component-common" style="rounded=1;whiteSpace=wrap;html=1;fillColor=#dae8fc;strokeColor=#6c8ebf;" vertex="1" parent="1">
          <mxGeometry x="550" y="320" width="180" height="60" as="geometry" />
        </mxCell>
        <mxCell id="Iqbc1BkNyJcO027LHsEv-4" value="ssgc-component-statistic" style="rounded=1;whiteSpace=wrap;html=1;fillColor=#dae8fc;strokeColor=#6c8ebf;" vertex="1" parent="1">
          <mxGeometry x="340" y="320" width="180" height="60" as="geometry" />
        </mxCell>
        <mxCell id="Iqbc1BkNyJcO027LHsEv-6" value="" style="rounded=1;whiteSpace=wrap;html=1;" vertex="1" parent="1">
          <mxGeometry x="110" y="450" width="660" height="120" as="geometry" />
        </mxCell>
      </root>
    </mxGraphModel>
  </diagram>
</mxfile>
